<svg width="122" height="23" viewBox="0 0 122 23" fill="none" xmlns="http://www.w3.org/2000/svg">
<path d="M8.73826 22.9847C6.0674 22.9847 3.94078 22.3077 2.35842 20.9535C0.786141 19.5994 0 17.7413 0 15.3792H6.15306C6.15306 16.1224 6.39495 16.6977 6.87873 17.1049C7.37259 17.502 7.98235 17.7005 8.70802 17.7005C9.37322 17.7005 9.94771 17.5325 10.4315 17.1965C10.9153 16.8606 11.1572 16.4075 11.1572 15.8373C11.1572 15.6133 11.1168 15.4148 11.0362 15.2417C10.9657 15.0584 10.8296 14.8955 10.628 14.753C10.4264 14.6003 10.24 14.4781 10.0687 14.3865C9.90739 14.2846 9.64031 14.1777 9.26739 14.0657C8.90456 13.9537 8.62235 13.8723 8.42078 13.8214C8.2192 13.7603 7.88157 13.6737 7.40787 13.5618C5.67432 13.1239 4.42456 12.7167 3.65858 12.34C1.71338 11.3931 0.604724 9.91169 0.332598 7.89575C0.292283 7.55976 0.272126 7.20341 0.272126 6.82669C0.272126 4.68858 1.00283 3.0239 2.46425 1.83267C3.93574 0.641434 5.95653 0.0458167 8.52661 0.0458167C11.1168 0.0458167 13.1275 0.677069 14.5587 1.93958C15.9899 3.20208 16.7055 4.9533 16.7055 7.19323H10.7036C10.7036 6.53143 10.492 6.02745 10.0687 5.68127C9.64534 5.32492 9.10613 5.14675 8.45102 5.14675C7.87653 5.14675 7.38267 5.27911 6.96944 5.54382C6.56629 5.79836 6.36472 6.1649 6.36472 6.64343C6.36472 6.84706 6.39999 7.03032 6.47054 7.19323C6.55117 7.35613 6.68724 7.50885 6.87873 7.65139C7.07023 7.78375 7.25165 7.90084 7.42298 8.00266C7.59432 8.09429 7.85133 8.19611 8.19401 8.3081C8.54676 8.40992 8.82897 8.49137 9.04062 8.55246C9.25227 8.61355 9.58487 8.70009 10.0384 8.81209C10.5121 8.93426 10.88 9.03099 11.142 9.10226C11.4041 9.17353 11.772 9.28553 12.2457 9.43825C12.7194 9.59097 13.0973 9.73351 13.3795 9.86587C13.6617 9.98805 14.0044 10.1611 14.4075 10.3851C14.8208 10.6091 15.1483 10.8331 15.3902 11.0571C15.6422 11.2811 15.9093 11.5611 16.1915 11.8971C16.4737 12.2229 16.6904 12.5691 16.8416 12.9356C17.0028 13.2919 17.1338 13.7094 17.2346 14.1879C17.3455 14.6664 17.4009 15.1755 17.4009 15.7151C17.4009 18.0365 16.6047 19.8285 15.0123 21.091C13.4299 22.3535 11.3386 22.9847 8.73826 22.9847Z" fill="#101010"/>
<path d="M30.3716 0.549801C32.6797 0.549801 34.5946 1.29814 36.1165 2.79482C37.6384 4.28132 38.3994 6.16999 38.3994 8.46082C38.3994 10.7517 37.6384 12.6505 36.1165 14.1574C34.5946 15.6541 32.6797 16.4024 30.3716 16.4024H27.1213V22.4502H21.1496V0.549801H30.3716ZM29.6611 11.1335C30.4372 11.1335 31.062 10.8891 31.5357 10.4004C32.0195 9.9015 32.2614 9.26007 32.2614 8.4761C32.2614 7.69212 32.0195 7.05578 31.5357 6.56707C31.062 6.06817 30.4372 5.81873 29.6611 5.81873H27.1213V11.1335H29.6611Z" fill="#101010"/>
<path d="M54.303 22.4502L53.1087 18.8918H45.4287L44.2343 22.4502H37.8394L46.3509 0.549801H52.1865L60.8794 22.4502H54.303ZM51.6573 14.1726L49.2535 7.39177L46.88 14.1726H51.6573Z" fill="#101010"/>
<path d="M72.9581 23C70.7912 23 68.8258 22.5011 67.0621 21.5033C65.3084 20.5055 63.9326 19.131 62.9348 17.3798C61.937 15.6286 61.4381 13.6737 61.4381 11.5153C61.4381 9.34661 61.937 7.38668 62.9348 5.63546C63.9326 3.87406 65.3084 2.49447 67.0621 1.49668C68.8258 0.498893 70.7912 0 72.9581 0C75.8003 0 78.2243 0.865427 80.2299 2.59628C82.2457 4.31695 83.4753 6.56707 83.9187 9.34661H77.8715C77.4986 8.21647 76.8737 7.3154 75.9968 6.64343C75.12 5.97145 74.1121 5.63546 72.9732 5.63546C71.4413 5.63546 70.1713 6.19035 69.1635 7.30013C68.1556 8.40992 67.6517 9.81496 67.6517 11.5153C67.6517 13.2054 68.1556 14.6003 69.1635 15.6999C70.1713 16.7995 71.4413 17.3493 72.9732 17.3493C74.1726 17.3493 75.2107 16.9878 76.0876 16.2649C76.9745 15.5319 77.5691 14.5544 77.8715 13.3327H83.9792C83.566 16.214 82.3465 18.5456 80.3206 20.3274C78.2948 22.1091 75.8406 23 72.9581 23Z" fill="#101010"/>
<path d="M93.4123 17.2118H101.591V22.4502H87.4709V0.549801H101.334V5.77291H93.4123V8.99535H100.533V13.9436H93.4123V17.2118Z" fill="#101010"/>
<path d="M113.337 22.9847C110.666 22.9847 108.54 22.3077 106.957 20.9535C105.385 19.5994 104.599 17.7413 104.599 15.3792H110.752C110.752 16.1224 110.994 16.6977 111.478 17.1049C111.972 17.502 112.581 17.7005 113.307 17.7005C113.972 17.7005 114.547 17.5325 115.031 17.1965C115.514 16.8606 115.756 16.4075 115.756 15.8373C115.756 15.6133 115.716 15.4148 115.635 15.2417C115.565 15.0584 115.429 14.8955 115.227 14.753C115.026 14.6003 114.839 14.4781 114.668 14.3865C114.506 14.2846 114.239 14.1777 113.866 14.0657C113.504 13.9537 113.221 13.8723 113.02 13.8214C112.818 13.7603 112.481 13.6737 112.007 13.5618C110.273 13.1239 109.024 12.7167 108.258 12.34C106.312 11.3931 105.204 9.91169 104.932 7.89575C104.891 7.55976 104.871 7.20341 104.871 6.82669C104.871 4.68858 105.602 3.0239 107.063 1.83267C108.535 0.641434 110.556 0.0458167 113.126 0.0458167C115.716 0.0458167 117.727 0.677069 119.158 1.93958C120.589 3.20208 121.305 4.9533 121.305 7.19323H115.303C115.303 6.53143 115.091 6.02745 114.668 5.68127C114.244 5.32492 113.705 5.14675 113.05 5.14675C112.476 5.14675 111.982 5.27911 111.569 5.54382C111.165 5.79836 110.964 6.1649 110.964 6.64343C110.964 6.84706 110.999 7.03032 111.07 7.19323C111.15 7.35613 111.286 7.50885 111.478 7.65139C111.669 7.78375 111.851 7.90084 112.022 8.00266C112.193 8.09429 112.45 8.19611 112.793 8.3081C113.146 8.40992 113.428 8.49137 113.64 8.55246C113.851 8.61355 114.184 8.70009 114.637 8.81209C115.111 8.93426 115.479 9.03099 115.741 9.10226C116.003 9.17353 116.371 9.28553 116.845 9.43825C117.318 9.59097 117.696 9.73351 117.979 9.86587C118.261 9.98805 118.603 10.1611 119.007 10.3851C119.42 10.6091 119.747 10.8331 119.989 11.0571C120.241 11.2811 120.508 11.5611 120.791 11.8971C121.073 12.2229 121.289 12.5691 121.441 12.9356C121.602 13.2919 121.733 13.7094 121.834 14.1879C121.945 14.6664 122 15.1755 122 15.7151C122 18.0365 121.204 19.8285 119.611 21.091C118.029 22.3535 115.938 22.9847 113.337 22.9847Z" fill="#101010"/>
</svg>
